<svg id="_01_align_center" data-name="01 align center" xmlns="http://www.w3.org/2000/svg" width="22" height="22" viewBox="0 0 22 22">
  <path id="Path_445" data-name="Path 445" d="M12.226.8A1.817,1.817,0,0,0,9.773.8L0,9.7v9.65A2.951,2.951,0,0,0,2.933,22.32H19.067A2.951,2.951,0,0,0,22,19.35V9.7ZM13.75,20.461H8.25V15.8a2.75,2.75,0,1,1,5.5,0Zm6.417-1.113a1.107,1.107,0,0,1-1.1,1.113H15.583V15.8a4.584,4.584,0,1,0-9.167,0v4.664H2.933a1.107,1.107,0,0,1-1.1-1.113V10.526L11,2.175l9.167,8.351Z" transform="translate(0 -0.32)"/>
</svg>
