<svg xmlns="http://www.w3.org/2000/svg" width="22" height="22" viewBox="0 0 22 22">
  <path id="money-check-edit" d="M22,7V8a.92.92,0,1,1-1.833,0V7a2.887,2.887,0,0,0-2.75-3H4.583a2.887,2.887,0,0,0-2.75,3V17a2.887,2.887,0,0,0,2.75,3h2.75a1,1,0,0,1,0,2H4.583A4.811,4.811,0,0,1,0,17V7A4.811,4.811,0,0,1,4.583,2H17.417A4.811,4.811,0,0,1,22,7ZM13.75,9h3.667a.961.961,0,0,0,.917-1,.961.961,0,0,0-.917-1H13.75a.961.961,0,0,0-.917,1A.961.961,0,0,0,13.75,9Zm7.444,2.879a3.2,3.2,0,0,1,0,4.243l-6.148,6.707A3.5,3.5,0,0,1,12.454,24H11a.961.961,0,0,1-.917-1V21.414a4.161,4.161,0,0,1,1.074-2.828l6.148-6.707a2.593,2.593,0,0,1,3.889,0ZM20.167,14a1.041,1.041,0,0,0-.269-.707.864.864,0,0,0-1.3,0L12.454,20a2.114,2.114,0,0,0-.537,1.414V22h.537a1.748,1.748,0,0,0,1.3-.586L19.9,14.706A1.041,1.041,0,0,0,20.167,14ZM8.25,15H6.171a.911.911,0,0,1-.795-.5.873.873,0,0,0-1.252-.365A1.049,1.049,0,0,0,3.79,15.5,2.724,2.724,0,0,0,6.172,17h.246a.961.961,0,0,0,.917,1,.961.961,0,0,0,.917-1A2.887,2.887,0,0,0,11,14a2.7,2.7,0,0,0-2.122-2.733L6.091,10.76A.752.752,0,0,1,5.5,10a.962.962,0,0,1,.917-1H8.5a.911.911,0,0,1,.795.5.875.875,0,0,0,1.252.365A1.049,1.049,0,0,0,10.877,8.5,2.725,2.725,0,0,0,8.5,7H8.25a.961.961,0,0,0-.917-1,.961.961,0,0,0-.917,1,2.887,2.887,0,0,0-2.75,3,2.7,2.7,0,0,0,2.122,2.733l2.788.507a.752.752,0,0,1,.59.76.962.962,0,0,1-.917,1Zm4.583-3a.92.92,0,1,0,.917-1A.961.961,0,0,0,12.833,12Z" transform="translate(0 -2)" fill="#fff"/>
</svg>
