<svg xmlns="http://www.w3.org/2000/svg" width="57" height="57" viewBox="0 0 57 57">
  <path id="expense-bill" d="M16.625,29.687a3.563,3.563,0,1,1-3.563-3.563A3.564,3.564,0,0,1,16.625,29.687ZM13.063,42.75a3.563,3.563,0,1,0,3.563,3.563A3.564,3.564,0,0,0,13.063,42.75Zm30.875,0A3.563,3.563,0,1,0,47.5,46.313,3.564,3.564,0,0,0,43.938,42.75Zm0-16.626A3.563,3.563,0,1,0,47.5,29.687,3.564,3.564,0,0,0,43.938,26.125ZM57,30.875v14.25A11.889,11.889,0,0,1,45.125,57H11.875A11.889,11.889,0,0,1,0,45.125V30.875A11.889,11.889,0,0,1,11.875,19H26.12L26.1,6.967,23.049,10A2.375,2.375,0,0,1,19.7,6.628l5.2-5.171a5,5,0,0,1,7.058,0L37.276,6.6a2.375,2.375,0,0,1-3.3,3.413L30.847,6.994,30.87,19H45.125A11.889,11.889,0,0,1,57,30.875Zm-4.75,0a7.134,7.134,0,0,0-7.125-7.125H11.875A7.134,7.134,0,0,0,4.75,30.875v14.25a7.134,7.134,0,0,0,7.125,7.125h33.25a7.134,7.134,0,0,0,7.125-7.125ZM38,38a9.5,9.5,0,1,1-9.5-9.5A9.51,9.51,0,0,1,38,38Zm-4.75,0a4.75,4.75,0,1,0-4.75,4.75A4.755,4.755,0,0,0,33.25,38Z" transform="translate(0 -0.001)" fill="#fff"/>
</svg>
